<svg xmlns="http://www.w3.org/2000/svg" viewBox="0 0 512 512" width="512" height="512" role="img">
<rect x="24" y="24" width="464" height="464" rx="120" fill="#ffe7ef"/><circle cx="256" cy="246" r="196" fill="#ffd3e2"/><ellipse cx="256" cy="438" rx="104" ry="17" fill="#000000" opacity="0.07"/><text x="256" y="214" text-anchor="middle" font-size="196" font-weight="800" font-family="'Arial Rounded MT Bold','Baloo 2','Helvetica Neue',Arial,sans-serif" fill="#ff6b9d" stroke="#ffffff" stroke-width="16" paint-order="stroke" stroke-linejoin="round">C</text><g transform="translate(156 236) scale(2.0)"><path d="M22 40L18 8l30 14z" fill="#ff9f43" stroke="#ffffff" stroke-width="5" stroke-linejoin="round"/><path d="M78 40L82 8 52 22z" fill="#ff9f43" stroke="#ffffff" stroke-width="5" stroke-linejoin="round"/><circle cx="50" cy="56" r="34" fill="#ff9f43" stroke="#ffffff" stroke-width="5"/><circle cx="38" cy="50" r="4" fill="#4a3f35"/><circle cx="62" cy="50" r="4" fill="#4a3f35"/><path d="M46 62h8l-4 5z" fill="#ff6b9d"/><path d="M44 70q6 6 12 0" stroke="#4a3f35" stroke-width="3" fill="none" stroke-linecap="round"/><path d="M18 56h12M18 64h12M70 56h12M70 64h12" stroke="#4a3f35" stroke-width="2.5" stroke-linecap="round" opacity="0.6"/></g>
</svg>
