<svg xmlns="http://www.w3.org/2000/svg" viewBox="0 0 120 140" width="240" height="280" role="img" aria-label="光之英雄占位形象">
  <!-- 原创简笔形象（scripts/gen-hero-art.py 生成）。家长可用同名 png 替换：public/heroes/reiga-base.png -->
  <defs>
    <radialGradient id="aura" cx="50%" cy="46%" r="52%">
      <stop offset="0%" stop-color="#e0a63a" stop-opacity="0.55"/>
      <stop offset="70%" stop-color="#e0a63a" stop-opacity="0.16"/>
      <stop offset="100%" stop-color="#e0a63a" stop-opacity="0"/>
    </radialGradient>
    <linearGradient id="body" x1="0" y1="0" x2="1" y2="1">
      <stop offset="0%" stop-color="#e9bf71"/>
      <stop offset="100%" stop-color="#af812d"/>
    </linearGradient>
  </defs>

  <circle cx="60" cy="66" r="60" fill="url(#aura)"/>

  <!-- 腿 -->
  <rect x="42" y="104" width="15" height="28" rx="7.5" fill="#af812d" stroke="#fff" stroke-width="2"/>
  <rect x="63" y="104" width="15" height="28" rx="7.5" fill="#af812d" stroke="#fff" stroke-width="2"/>
  <!-- 脚 -->
  <rect x="38" y="126" width="22" height="10" rx="5" fill="#af812d" stroke="#fff" stroke-width="2"/>
  <rect x="59" y="126" width="22" height="10" rx="5" fill="#af812d" stroke="#fff" stroke-width="2"/>

  <rect x="24" y="72" width="14" height="40" rx="7.0" fill="url(#body)" stroke="#fff" stroke-width="2"/><rect x="82" y="72" width="14" height="40" rx="7.0" fill="url(#body)" stroke="#fff" stroke-width="2"/>

  <!-- 躯干 -->
  <rect x="40" y="66" width="40" height="44" rx="16.0" fill="url(#body)" stroke="#fff" stroke-width="2"/>
  <!-- 胸口能量计时器 -->
  <circle cx="60" cy="86" r="8" fill="#f6e6c8" stroke="#fff" stroke-width="2.5"/>
  <circle cx="60" cy="86" r="3" fill="#fff" opacity="0.85"/>

  <!-- 头 -->
  <ellipse cx="60" cy="44" rx="27" ry="25" fill="url(#body)" stroke="#fff" stroke-width="2"/>
  <path d="M60 8 L68 26 L60 34 L52 26 Z" fill="#af812d" stroke="#fff" stroke-width="2" stroke-linejoin="round"/>
  <!-- 眼睛（发光） -->
  <ellipse cx="48.1" cy="46" rx="7.6" ry="9.0" fill="#fbf4e7" transform="rotate(-14 48.1 46)"/>
  <ellipse cx="71.9" cy="46" rx="7.6" ry="9.0" fill="#fbf4e7" transform="rotate(14 71.9 46)"/>
  <ellipse cx="48.1" cy="46" rx="3.4" ry="4.2" fill="#fff" opacity="0.9" transform="rotate(-14 48.1 46)"/>
  <ellipse cx="71.9" cy="46" rx="3.4" ry="4.2" fill="#fff" opacity="0.9" transform="rotate(14 71.9 46)"/>
  <!-- 额头水晶 -->
  <path d="M60 30 L64.5 36 L60 42 L55.5 36 Z" fill="#f6e6c8" stroke="#fff" stroke-width="1.6" stroke-linejoin="round"/>
</svg>
