<svg xmlns="http://www.w3.org/2000/svg" viewBox="0 0 512 512" width="512" height="512" role="img">
<rect x="24" y="24" width="464" height="464" rx="120" fill="#ffe7ef"/><circle cx="256" cy="246" r="196" fill="#ffd3e2"/><ellipse cx="256" cy="430" rx="132" ry="21" fill="#000000" opacity="0.07"/><circle cx="150" cy="118" r="42" fill="#ff6b9d" stroke="#ffffff" stroke-width="12"/><circle cx="362" cy="118" r="42" fill="#ff6b9d" stroke="#ffffff" stroke-width="12"/><rect x="82" y="104" width="348" height="330" rx="128" fill="#ff6b9d" stroke="#ffffff" stroke-width="14"/><ellipse cx="256" cy="360" rx="112" ry="52" fill="#d94f7e" opacity="0.35"/><ellipse cx="176" cy="196" rx="34" ry="24" fill="#ffffff" opacity="0.5" transform="rotate(-28 176 196)"/><circle cx="204.0" cy="250" r="17.0" fill="#4a3f35"/><circle cx="308.0" cy="250" r="17.0" fill="#4a3f35"/><circle cx="209.95" cy="244.05" r="5.78" fill="#ffffff" opacity="0.9"/><circle cx="313.95" cy="244.05" r="5.78" fill="#ffffff" opacity="0.9"/><path d="M226.0 284.0 q30.0 26.0 60.0 0" stroke="#4a3f35" stroke-width="5.0" fill="none" stroke-linecap="round"/><circle cx="182.0" cy="274.0" r="13.0" fill="#ff9f9f" opacity="0.55"/><circle cx="330.0" cy="274.0" r="13.0" fill="#ff9f9f" opacity="0.55"/>
</svg>
